<svg width="604" height="158" xmlns="http://www.w3.org/2000/svg" xmlns:xlink="http://www.w3.org/1999/xlink" xml:space="preserve" overflow="hidden"><g transform="translate(-142 -13)"><path d="M389.323 361.107 389.123 361.107C389.223 361.107 389.223 361.207 389.323 361.207L389.423 361.207 389.323 361.107ZM389.323 361.207C388.522 361.207 386.421 361.607 384.22 361.607 377.316 361.607 374.915 358.405 374.915 354.203L374.915 326.387 389.023 326.387C389.823 326.387 390.424 325.686 390.424 324.686L390.424 309.577C390.424 308.777 389.723 308.076 389.023 308.076L374.915 308.076 374.915 289.266C374.915 288.565 374.414 288.165 373.614 288.165L354.403 288.165C353.602 288.165 353.202 288.665 353.202 289.266L353.202 308.577C353.202 308.577 343.497 310.978 342.896 311.078 342.196 311.278 341.796 311.879 341.796 312.579L341.796 324.686C341.796 325.686 342.496 326.387 343.297 326.387L353.102 326.387 353.102 355.604C353.102 377.316 368.211 379.517 378.517 379.517 383.219 379.517 388.923 378.016 389.823 377.516 390.323 377.316 390.624 376.716 390.624 376.115L390.624 362.808C390.624 362.007 390.123 361.407 389.323 361.207L389.323 361.207ZM600.044 341.696C600.044 325.586 593.54 323.485 586.736 324.186 581.433 324.486 577.13 327.187 577.13 327.187L577.13 358.505C577.13 358.505 581.433 361.507 587.937 361.707 597.042 361.907 600.044 358.605 600.044 341.696L600.044 341.696ZM621.656 340.295C621.656 370.812 611.75 379.517 594.54 379.517 579.932 379.517 572.128 372.113 572.128 372.113 572.128 372.113 571.827 376.215 571.327 376.716 571.027 377.216 570.627 377.416 570.026 377.416L556.919 377.416C556.018 377.416 555.218 376.716 555.218 375.915L555.418 277.159C555.418 276.358 556.118 275.658 556.919 275.658L575.83 275.658C576.63 275.658 577.331 276.358 577.331 277.159L577.331 310.678C577.331 310.678 584.635 305.975 595.341 305.975L595.241 305.775C605.847 305.775 621.656 309.777 621.656 340.295L621.656 340.295ZM544.111 308.176 525.401 308.176C524.4 308.176 523.9 308.877 523.9 309.877L523.9 358.205C523.9 358.205 518.997 361.607 512.293 361.607 505.689 361.607 503.688 358.605 503.688 351.901L503.688 309.677C503.688 308.877 502.988 308.176 502.187 308.176L483.177 308.176C482.376 308.176 481.676 308.877 481.676 309.677L481.676 355.203C481.676 374.715 492.582 379.617 507.591 379.617 519.998 379.617 530.003 372.813 530.003 372.813 530.003 372.813 530.504 376.315 530.704 376.816 530.904 377.216 531.504 377.616 532.105 377.616L544.011 377.616C545.012 377.616 545.512 376.916 545.512 376.115L545.712 309.677C545.812 308.877 545.012 308.176 544.111 308.176L544.111 308.176ZM333.391 308.076 314.48 308.076C313.68 308.076 312.979 308.877 312.979 309.877L312.979 375.115C312.979 376.916 314.18 377.516 315.681 377.516L332.791 377.516C334.592 377.516 334.992 376.716 334.992 375.115L334.992 309.577C334.892 308.777 334.191 308.076 333.391 308.076L333.391 308.076ZM323.985 277.959C317.182 277.959 311.678 283.362 311.678 290.266 311.678 297.07 317.082 302.573 323.985 302.573 330.689 302.573 336.092 297.17 336.092 290.266 336.092 283.462 330.689 277.959 323.985 277.959L323.985 277.959ZM470.669 275.758 451.859 275.758C451.058 275.758 450.358 276.458 450.358 277.259L450.358 313.579 420.941 313.579 420.941 277.259C420.941 276.458 420.241 275.758 419.44 275.758L400.529 275.758C399.729 275.758 399.028 276.458 399.028 277.259L399.028 376.015C399.028 376.816 399.829 377.516 400.529 377.516L419.44 377.516C420.241 377.516 420.941 376.816 420.941 376.015L420.941 333.791 450.358 333.791 450.158 376.015C450.158 376.816 450.858 377.516 451.659 377.516L470.569 377.516C471.37 377.516 472.07 376.816 472.07 376.015L472.07 277.259C472.17 276.458 471.47 275.758 470.669 275.758L470.669 275.758ZM302.873 319.483 302.873 370.512C302.873 370.812 302.773 371.513 302.373 371.613 302.373 371.613 291.267 379.517 272.956 379.517 250.844 379.517 224.529 372.613 224.529 326.887 224.529 281.161 247.442 271.756 269.854 271.856 289.266 271.856 297.07 276.258 298.271 277.059 298.571 277.559 298.771 277.859 298.771 278.259L295.169 294.168C295.169 294.969 294.369 295.969 293.368 295.669 290.166 294.669 285.363 292.768 274.057 292.768 260.949 292.768 246.941 296.47 246.941 325.987 246.941 355.403 260.249 358.905 269.854 358.905 278.059 358.905 280.961 357.905 280.961 357.905L280.961 337.493 267.853 337.493C266.853 337.493 266.152 336.793 266.152 335.992L266.152 319.583C266.152 318.783 266.853 318.082 267.853 318.082L301.172 318.082C302.173 317.982 302.873 318.682 302.873 319.483L302.873 319.483Z" fill="#24292E" transform="matrix(1 0 0 1.00457 122.474 -233.873)"/><path d="M97.4558 246.541C55.3317 246.541 21.2121 280.661 21.2121 322.785 21.2121 356.504 43.0246 385.02 73.342 395.126 77.1442 395.727 78.645 393.525 78.645 391.524 78.645 389.723 78.545 383.72 78.545 377.316 59.434 380.818 54.4312 372.613 52.9303 368.411 52.0298 366.21 48.3277 359.406 45.1258 357.605 42.4243 356.204 38.6221 352.602 45.0258 352.502 51.0292 352.402 55.3317 358.005 56.7325 360.306 63.6364 371.813 74.5427 368.611 78.9452 366.61 79.6456 361.707 81.6467 358.305 83.848 356.404 66.9383 354.503 49.1281 347.899 49.1281 318.783 49.1281 310.478 52.1298 303.574 56.9326 298.271 56.1321 296.37 53.5306 288.565 57.7331 278.059 57.7331 278.059 64.1367 276.058 78.7451 285.864 84.8486 284.163 91.3523 283.262 97.756 283.262 104.26 283.262 110.663 284.163 116.767 285.864 131.375 275.958 137.679 278.059 137.679 278.059 141.881 288.565 139.18 296.37 138.479 298.271 143.382 303.574 146.284 310.378 146.284 318.783 146.284 347.999 128.474 354.503 111.464 356.404 114.265 358.805 116.667 363.308 116.667 370.512 116.667 380.718 116.567 388.923 116.567 391.424 116.567 393.425 117.968 395.827 121.77 395.026 152.787 384.52 173.699 355.403 173.699 322.685 173.699 280.661 139.58 246.541 97.4558 246.541L97.4558 246.541Z" fill="#24292E" fill-rule="evenodd" transform="matrix(1 0 0 1.00457 122.474 -233.873)"/></g></svg>